<svg xmlns="http://www.w3.org/2000/svg" viewBox="0 0 460 400" font-family="system-ui,-apple-system,'Segoe UI',sans-serif"><rect width="460" height="400" rx="12" fill="#fff"/><line x1="51.1" y1="370" x2="51.1" y2="30" stroke="#E4EAF4"/><line x1="95.8" y1="370" x2="95.8" y2="30" stroke="#E4EAF4"/><line x1="140.5" y1="370" x2="140.5" y2="30" stroke="#E4EAF4"/><line x1="185.3" y1="370" x2="185.3" y2="30" stroke="#E4EAF4"/><line x1="230" y1="370" x2="230" y2="30" stroke="#E4EAF4"/><line x1="274.7" y1="370" x2="274.7" y2="30" stroke="#E4EAF4"/><line x1="319.5" y1="370" x2="319.5" y2="30" stroke="#E4EAF4"/><line x1="364.2" y1="370" x2="364.2" y2="30" stroke="#E4EAF4"/><line x1="408.9" y1="370" x2="408.9" y2="30" stroke="#E4EAF4"/><line x1="33.2" y1="334.2" x2="426.8" y2="334.2" stroke="#E4EAF4"/><line x1="33.2" y1="289.5" x2="426.8" y2="289.5" stroke="#E4EAF4"/><line x1="33.2" y1="244.7" x2="426.8" y2="244.7" stroke="#E4EAF4"/><line x1="33.2" y1="200" x2="426.8" y2="200" stroke="#E4EAF4"/><line x1="33.2" y1="155.3" x2="426.8" y2="155.3" stroke="#E4EAF4"/><line x1="33.2" y1="110.5" x2="426.8" y2="110.5" stroke="#E4EAF4"/><line x1="33.2" y1="65.8" x2="426.8" y2="65.8" stroke="#E4EAF4"/><defs><marker id="ah" markerWidth="8" markerHeight="8" refX="6" refY="3" orient="auto"><path d="M0,0 L6,3 L0,6 Z" fill="#101828"/></marker></defs><line x1="33.2" y1="200" x2="426.8" y2="200" stroke="#101828" stroke-width="1.4" marker-end="url(#ah)"/><line x1="230" y1="370" x2="230" y2="30" stroke="#101828" stroke-width="1.4" marker-end="url(#ah)"/><text x="424.8" y="215" font-size="13" fill="#101828" font-style="italic" text-anchor="end">x</text><text x="237" y="41" font-size="13" fill="#101828" font-style="italic">y</text><line x1="185.3" y1="318.4" x2="274.7" y2="318.4" stroke="#8794AB" stroke-width="1.2" stroke-dasharray="5 4"/><line x1="185.3" y1="81.6" x2="274.7" y2="81.6" stroke="#8794AB" stroke-width="1.2" stroke-dasharray="5 4"/><line x1="185.3" y1="318.4" x2="185.3" y2="81.6" stroke="#8794AB" stroke-width="1.2" stroke-dasharray="5 4"/><line x1="274.7" y1="318.4" x2="274.7" y2="81.6" stroke="#8794AB" stroke-width="1.2" stroke-dasharray="5 4"/><line x1="33.2" y1="720.8" x2="426.8" y2="-320.8" stroke="#8794AB" stroke-width="1.2" stroke-dasharray="5 4"/><line x1="33.2" y1="-320.8" x2="426.8" y2="720.8" stroke="#8794AB" stroke-width="1.2" stroke-dasharray="5 4"/><path d="M322.1 412.9 L321 409.7 L319.9 406.4 L318.9 403.3 L317.9 400.1 L316.9 397 L315.9 393.9 L314.9 390.8 L313.9 387.8 L313 384.8 L312 381.9 L311.1 379 L310.2 376.1 L309.3 373.3 L308.4 370.4 L307.6 367.7 L306.7 364.9 L305.9 362.2 L305.1 359.5 L304.3 356.8 L303.5 354.2 L302.7 351.6 L301.9 349 L301.2 346.4 L300.4 343.9 L299.7 341.4 L299 338.9 L298.3 336.5 L297.6 334 L296.9 331.6 L296.2 329.3 L295.6 326.9 L294.9 324.6 L294.3 322.3 L293.7 320 L293.1 317.7 L292.5 315.5 L291.9 313.3 L291.3 311 L290.8 308.9 L290.2 306.7 L289.7 304.6 L289.2 302.4 L288.6 300.3 L288.1 298.3 L287.6 296.2 L287.2 294.1 L286.7 292.1 L286.2 290.1 L285.8 288.1 L285.3 286.1 L284.9 284.1 L284.5 282.2 L284 280.2 L283.6 278.3 L283.2 276.4 L282.9 274.5 L282.5 272.6 L282.1 270.8 L281.8 268.9 L281.4 267.1 L281.1 265.2 L280.8 263.4 L280.4 261.6 L280.1 259.8 L279.8 258 L279.5 256.3 L279.3 254.5 L279 252.7 L278.7 251 L278.5 249.3 L278.2 247.5 L278 245.8 L277.7 244.1 L277.5 242.4 L277.3 240.7 L277.1 239 L276.9 237.3 L276.7 235.7 L276.5 234 L276.4 232.3 L276.2 230.7 L276.1 229 L275.9 227.4 L275.8 225.8 L275.7 224.1 L275.5 222.5 L275.4 220.9 L275.3 219.3 L275.2 217.6 L275.1 216 L275.1 214.4 L275 212.8 L274.9 211.2 L274.9 209.6 L274.8 208 L274.8 206.4 L274.8 204.8 L274.8 203.2 L274.7 201.6 L274.7 200 L274.7 198.4 L274.8 196.8 L274.8 195.2 L274.8 193.6 L274.8 192 L274.9 190.4 L274.9 188.8 L275 187.2 L275.1 185.6 L275.1 184 L275.2 182.4 L275.3 180.7 L275.4 179.1 L275.5 177.5 L275.7 175.9 L275.8 174.2 L275.9 172.6 L276.1 171 L276.2 169.3 L276.4 167.7 L276.5 166 L276.7 164.3 L276.9 162.7 L277.1 161 L277.3 159.3 L277.5 157.6 L277.7 155.9 L278 154.2 L278.2 152.5 L278.5 150.7 L278.7 149 L279 147.3 L279.3 145.5 L279.5 143.7 L279.8 142 L280.1 140.2 L280.4 138.4 L280.8 136.6 L281.1 134.8 L281.4 132.9 L281.8 131.1 L282.1 129.2 L282.5 127.4 L282.9 125.5 L283.2 123.6 L283.6 121.7 L284 119.8 L284.5 117.8 L284.9 115.9 L285.3 113.9 L285.8 111.9 L286.2 109.9 L286.7 107.9 L287.2 105.9 L287.6 103.8 L288.1 101.7 L288.6 99.7 L289.2 97.6 L289.7 95.4 L290.2 93.3 L290.8 91.1 L291.3 89 L291.9 86.7 L292.5 84.5 L293.1 82.3 L293.7 80 L294.3 77.7 L294.9 75.4 L295.6 73.1 L296.2 70.7 L296.9 68.4 L297.6 66 L298.3 63.5 L299 61.1 L299.7 58.6 L300.4 56.1 L301.2 53.6 L301.9 51 L302.7 48.4 L303.5 45.8 L304.3 43.2 L305.1 40.5 L305.9 37.8 L306.7 35.1 L307.6 32.3 L308.4 29.6 L309.3 26.7 L310.2 23.9 L311.1 21 L312 18.1 L313 15.2 L313.9 12.2 L314.9 9.2 L315.9 6.1 L316.9 3 L317.9 -0.1 L318.9 -3.3 L319.9 -6.4 L321 -9.7 L322.1 -12.9 " fill="none" stroke="#2563EB" stroke-width="2.4" stroke-linejoin="round"/><path d="M137.9 412.9 L139 409.7 L140.1 406.4 L141.1 403.3 L142.1 400.1 L143.1 397 L144.1 393.9 L145.1 390.8 L146.1 387.8 L147 384.8 L148 381.9 L148.9 379 L149.8 376.1 L150.7 373.3 L151.6 370.4 L152.4 367.7 L153.3 364.9 L154.1 362.2 L154.9 359.5 L155.7 356.8 L156.5 354.2 L157.3 351.6 L158.1 349 L158.8 346.4 L159.6 343.9 L160.3 341.4 L161 338.9 L161.7 336.5 L162.4 334 L163.1 331.6 L163.8 329.3 L164.4 326.9 L165.1 324.6 L165.7 322.3 L166.3 320 L166.9 317.7 L167.5 315.5 L168.1 313.3 L168.7 311 L169.2 308.9 L169.8 306.7 L170.3 304.6 L170.8 302.4 L171.4 300.3 L171.9 298.3 L172.4 296.2 L172.8 294.1 L173.3 292.1 L173.8 290.1 L174.2 288.1 L174.7 286.1 L175.1 284.1 L175.5 282.2 L176 280.2 L176.4 278.3 L176.8 276.4 L177.1 274.5 L177.5 272.6 L177.9 270.8 L178.2 268.9 L178.6 267.1 L178.9 265.2 L179.2 263.4 L179.6 261.6 L179.9 259.8 L180.2 258 L180.5 256.3 L180.7 254.5 L181 252.7 L181.3 251 L181.5 249.3 L181.8 247.5 L182 245.8 L182.3 244.1 L182.5 242.4 L182.7 240.7 L182.9 239 L183.1 237.3 L183.3 235.7 L183.5 234 L183.6 232.3 L183.8 230.7 L183.9 229 L184.1 227.4 L184.2 225.8 L184.3 224.1 L184.5 222.5 L184.6 220.9 L184.7 219.3 L184.8 217.6 L184.9 216 L184.9 214.4 L185 212.8 L185.1 211.2 L185.1 209.6 L185.2 208 L185.2 206.4 L185.2 204.8 L185.2 203.2 L185.3 201.6 L185.3 200 L185.3 198.4 L185.2 196.8 L185.2 195.2 L185.2 193.6 L185.2 192 L185.1 190.4 L185.1 188.8 L185 187.2 L184.9 185.6 L184.9 184 L184.8 182.4 L184.7 180.7 L184.6 179.1 L184.5 177.5 L184.3 175.9 L184.2 174.2 L184.1 172.6 L183.9 171 L183.8 169.3 L183.6 167.7 L183.5 166 L183.3 164.3 L183.1 162.7 L182.9 161 L182.7 159.3 L182.5 157.6 L182.3 155.9 L182 154.2 L181.8 152.5 L181.5 150.7 L181.3 149 L181 147.3 L180.7 145.5 L180.5 143.7 L180.2 142 L179.9 140.2 L179.6 138.4 L179.2 136.6 L178.9 134.8 L178.6 132.9 L178.2 131.1 L177.9 129.2 L177.5 127.4 L177.1 125.5 L176.8 123.6 L176.4 121.7 L176 119.8 L175.5 117.8 L175.1 115.9 L174.7 113.9 L174.2 111.9 L173.8 109.9 L173.3 107.9 L172.8 105.9 L172.4 103.8 L171.9 101.7 L171.4 99.7 L170.8 97.6 L170.3 95.4 L169.8 93.3 L169.2 91.1 L168.7 89 L168.1 86.7 L167.5 84.5 L166.9 82.3 L166.3 80 L165.7 77.7 L165.1 75.4 L164.4 73.1 L163.8 70.7 L163.1 68.4 L162.4 66 L161.7 63.5 L161 61.1 L160.3 58.6 L159.6 56.1 L158.8 53.6 L158.1 51 L157.3 48.4 L156.5 45.8 L155.7 43.2 L154.9 40.5 L154.1 37.8 L153.3 35.1 L152.4 32.3 L151.6 29.6 L150.7 26.7 L149.8 23.9 L148.9 21 L148 18.1 L147 15.2 L146.1 12.2 L145.1 9.2 L144.1 6.1 L143.1 3 L142.1 -0.1 L141.1 -3.3 L140.1 -6.4 L139 -9.7 L137.9 -12.9 " fill="none" stroke="#2563EB" stroke-width="2.4" stroke-linejoin="round"/><line x1="185.3" y1="200" x2="274.7" y2="200" stroke="#E11D48" stroke-width="4"/><line x1="230" y1="318.4" x2="230" y2="81.6" stroke="#0D9488" stroke-width="4"/><circle cx="356.5" cy="200" r="4" fill="#101828"/><circle cx="103.5" cy="200" r="4" fill="#101828"/><text x="362.5" y="218" font-size="12.5" fill="#101828" text-anchor="start">F₂</text><text x="97.5" y="218" font-size="12.5" fill="#101828" text-anchor="end">F₁</text><text x="252.4" y="220" font-size="12.5" fill="#E11D48" text-anchor="start">实轴 2a</text><text x="240" y="70.3" font-size="12.5" fill="#0D9488" text-anchor="start">虚轴 2b = √7·2a</text><text x="341.8" y="47.9" font-size="12.5" fill="#2563EB" text-anchor="middle">c²=a²+b²=8a² ⇒ e=2√2</text></svg>